HIERARCHY
ROOT Hips
{
	OFFSET 15.585500 22.159004 44.358299
	CHANNELS 6 Xposition Yposition Zposition Zrotation Xrotation Yrotation
	JOINT Chest
	{
		OFFSET -0.128500 0.160400 6.566002
		CHANNELS 6 Xposition Yposition Zposition Zrotation Xrotation Yrotation
		JOINT Chest2
		{
			OFFSET 0.000000 0.000000 3.554802
			CHANNELS 6 Xposition Yposition Zposition Zrotation Xrotation Yrotation
			JOINT Neck
			{
				OFFSET 0.000000 0.000000 8.267998
				CHANNELS 6 Xposition Yposition Zposition Zrotation Xrotation Yrotation
				JOINT Head
				{
					OFFSET 0.000000 0.000002 2.173897
					CHANNELS 6 Xposition Yposition Zposition Zrotation Xrotation Yrotation
					End Site
					{
						OFFSET 0.000000 0.000000 7.718697
					}
				}
			}
			JOINT LeftCollar
			{
				OFFSET 2.057500 0.117599 5.946301
				CHANNELS 6 Xposition Yposition Zposition Zrotation Xrotation Yrotation
				JOINT LeftShoulder
				{
					OFFSET 4.957699 0.000000 0.000000
					CHANNELS 6 Xposition Yposition Zposition Zrotation Xrotation Yrotation
					JOINT LeftElbow
					{
						OFFSET 0.000000 0.000000 -8.465500
						CHANNELS 6 Xposition Yposition Zposition Zrotation Xrotation Yrotation
						JOINT LeftWrist
						{
							OFFSET 0.000000 -0.000002 -14.594898
							CHANNELS 6 Xposition Yposition Zposition Zrotation Xrotation Yrotation
							End Site
							{
								OFFSET 0.000000 0.000000 -2.173901
							}
						}
					}
				}
			}
			JOINT RightCollar
			{
				OFFSET -3.048500 -0.728800 6.604099
				CHANNELS 6 Xposition Yposition Zposition Zrotation Xrotation Yrotation
				JOINT RightShoulder
				{
					OFFSET -3.710299 0.000000 0.000000
					CHANNELS 6 Xposition Yposition Zposition Zrotation Xrotation Yrotation
					JOINT RightElbow
					{
						OFFSET 0.000000 0.000000 -10.450901
						CHANNELS 6 Xposition Yposition Zposition Zrotation Xrotation Yrotation
						JOINT RightWrist
						{
							OFFSET 0.000000 0.000000 -12.539200
							CHANNELS 6 Xposition Yposition Zposition Zrotation Xrotation Yrotation
							End Site
							{
								OFFSET 0.000000 -0.000002 -2.173901
							}
						}
					}
				}
			}
		}
	}
	JOINT LeftHip
	{
		OFFSET 2.442599 -0.601400 -2.767502
		CHANNELS 6 Xposition Yposition Zposition Zrotation Xrotation Yrotation
		JOINT LeftKnee
		{
			OFFSET 0.000000 -0.000002 -17.033703
			CHANNELS 6 Xposition Yposition Zposition Zrotation Xrotation Yrotation
			JOINT LeftAnkle
			{
				OFFSET 0.000000 -0.000002 -19.318800
				CHANNELS 6 Xposition Yposition Zposition Zrotation Xrotation Yrotation
				End Site
				{
					OFFSET 0.000000 -8.281900 0.000000
				}
			}
		}
	}
	JOINT RightHip
	{
		OFFSET -3.126200 -0.601400 -2.283501
		CHANNELS 6 Xposition Yposition Zposition Zrotation Xrotation Yrotation
		JOINT RightKnee
		{
			OFFSET 0.000000 -0.000002 -16.919401
			CHANNELS 6 Xposition Yposition Zposition Zrotation Xrotation Yrotation
			JOINT RightAnkle
			{
				OFFSET 0.000000 -0.000002 -18.035900
				CHANNELS 6 Xposition Yposition Zposition Zrotation Xrotation Yrotation
				End Site
				{
					OFFSET 0.000000 -9.230099 0.000000
				}
			}
		}
	}
}
MOTION
Frames: 9
Frame Time: 0.041667
24.110596 24.798904 43.733601 7.029106 -5.600691 4.321735 -0.128502 0.160393 6.566003 -6.142641 9.079458 -4.461204 -0.000004 -0.000002 3.554809 8.789081 -6.421099 0.852787 0.000001 -0.000003 8.267994 -7.649399 3.666992 2.884825 0.000001 0.000007 2.173887 0.965936 1.440602 -1.076795 2.057505 0.117600 5.946303 -19.040153 1.005854 3.791425 4.957702 0.000005 0.000003 -10.530387 -8.712495 -72.243847 0.000004 0.000004 -8.465501 -129.188425 -176.745543 -176.282224 -0.000004 -0.000003 -14.594896 41.089192 -11.336452 -3.211567 -3.048504 -0.728799 6.604102 25.066683 -3.784058 -9.136979 -3.710292 -0.000001 0.000000 3.544195 -32.252389 82.862612 0.000010 0.000002 -10.450893 -52.282998 -28.803273 -10.760624 0.000006 0.000002 -12.539189 -36.527056 -8.208178 25.941864 2.442597 -0.601403 -2.767493 -17.037895 2.523106 0.253427 -0.000000 0.000001 -17.033703 -4.971136 13.841759 12.410973 -0.000001 -0.000004 -19.318800 26.268894 19.412323 4.281522 -3.126201 -0.601407 -2.283494 -129.543717 -37.638195 -87.063554 0.000004 -0.000003 -16.919401 -16.817848 13.033865 -0.996181 -0.000002 -0.000002 -18.035896 150.208455 82.100062 -94.768567
24.078697 24.812008 43.717304 7.148816 -5.725793 4.233683 -0.128495 0.160403 6.565997 -6.254583 9.208051 -4.411867 0.000001 -0.000000 3.554809 8.899715 -6.410676 0.923423 -0.000000 0.000006 8.268002 -6.207848 3.835100 1.851205 0.000002 0.000002 2.173896 -0.538462 1.325611 -0.090520 2.057501 0.117603 5.946300 -19.105549 0.987651 3.817079 4.957701 0.000003 0.000002 -10.967485 -8.912160 -72.018758 0.000009 0.000003 -8.465506 -129.661128 -176.701898 -176.206873 0.000000 -0.000006 -14.594890 40.935335 -11.368124 -3.015582 -3.048506 -0.728795 6.604103 25.141954 -3.737672 -9.146127 -3.710293 0.000002 0.000000 3.698085 -32.308919 82.624559 -0.000004 -0.000004 -10.450888 -52.209010 -29.323232 -10.980257 0.000007 -0.000005 -12.539194 -36.099401 -8.344890 26.038974 2.442602 -0.601395 -2.767503 -17.159986 2.513220 0.376473 0.000002 -0.000005 -17.033703 -5.287495 13.954277 12.434907 -0.000001 -0.000004 -19.318802 26.524025 19.360385 4.216131 -3.126192 -0.601397 -2.283508 -128.759434 -38.235331 -86.711246 0.000003 -0.000000 -16.919401 -16.748221 13.070778 -1.079341 -0.000007 -0.000001 -18.035896 149.303441 82.171711 -94.061718
24.046898 24.825207 43.702503 7.268922 -5.853903 4.150980 -0.128500 0.160396 6.566010 -6.367360 9.341860 -4.361638 -0.000001 0.000001 3.554811 9.004425 -6.400268 0.989162 -0.000001 0.000001 8.268000 -6.253833 3.826226 1.898633 0.000003 0.000002 2.173906 -0.527231 1.322607 -0.092207 2.057504 0.117601 5.946305 -19.175304 0.969493 3.838571 4.957701 0.000005 -0.000002 -11.400894 -9.106895 -71.790090 0.000002 0.000004 -8.465500 -130.139187 -176.654059 -176.129719 -0.000003 0.000002 -14.594897 40.790289 -11.395713 -2.841627 -3.048502 -0.728801 6.604104 25.213334 -3.693914 -9.162113 -3.710292 0.000001 0.000003 3.853109 -32.373755 82.383918 0.000005 0.000000 -10.450891 -52.130442 -29.832794 -11.211141 0.000004 0.000000 -12.539195 -35.489817 -8.706206 26.164563 2.442598 -0.601400 -2.767492 -17.282110 2.511929 0.491116 0.000001 0.000000 -17.033705 -5.556011 14.061904 12.461255 0.000001 -0.000004 -19.318800 26.741756 19.317699 4.148742 -3.126199 -0.601408 -2.283499 -127.957843 -38.814978 -86.336050 0.000002 -0.000005 -16.919395 -16.641734 13.113395 -1.159148 0.000000 0.000000 -18.035896 148.379057 82.242301 -93.323033
24.014698 24.838606 43.689503 7.391237 -5.985688 4.076114 -0.128502 0.160400 6.566002 -6.483033 9.482755 -4.310221 -0.000001 -0.000002 3.554809 9.103455 -6.390783 1.047761 0.000001 0.000001 8.268008 -6.294978 3.814213 1.933740 -0.000001 0.000005 2.173900 -0.520276 1.320039 -0.086192 2.057507 0.117603 5.946309 -19.249753 0.951027 3.857798 4.957694 0.000006 0.000005 -11.832216 -9.293379 -71.561340 0.000011 -0.000002 -8.465503 -130.629239 -176.602109 -176.051637 -0.000001 -0.000005 -14.594897 40.684029 -11.422372 -2.693565 -3.048499 -0.728798 6.604105 25.277613 -3.653893 -9.186356 -3.710293 0.000001 0.000002 4.013151 -32.438068 82.141692 0.000005 0.000003 -10.450897 -52.048675 -30.334212 -11.448861 0.000008 0.000005 -12.539199 -35.048559 -8.865061 26.318782 2.442600 -0.601397 -2.767503 -17.407336 2.500726 0.627226 0.000002 -0.000001 -17.033703 -5.761934 14.187300 12.457435 -0.000003 -0.000003 -19.318802 26.919249 19.286414 4.082857 -3.126198 -0.601403 -2.283505 -127.138862 -39.374791 -85.936983 -0.000002 0.000001 -16.919399 -16.505120 13.160202 -1.234877 -0.000005 0.000005 -18.035898 147.438717 82.310623 -92.558694
23.981701 24.852608 43.678501 7.517275 -6.120908 4.011784 -0.128507 0.160395 6.566001 -6.602984 9.632149 -4.258149 -0.000001 -0.000003 3.554809 9.197023 -6.383159 1.097479 -0.000003 0.000002 8.267999 -6.330809 3.797972 1.955861 0.000001 0.000003 2.173900 -0.519010 1.317906 -0.071844 2.057504 0.117601 5.946304 -19.328619 0.932488 3.877786 4.957702 0.000006 0.000014 -12.262858 -9.469226 -71.336511 0.000006 0.000000 -8.465500 -131.135616 -176.545992 -175.972803 -0.000004 -0.000006 -14.594889 40.607756 -11.445046 -2.570467 -3.048506 -0.728797 6.604099 25.332576 -3.617790 -9.220051 -3.710291 -0.000002 -0.000005 4.181386 -32.494820 81.898961 0.000007 0.000001 -10.450897 -51.963741 -30.830046 -11.689422 0.000003 0.000009 -12.539194 -34.615641 -9.027417 26.497663 2.442597 -0.601405 -2.767499 -17.534581 2.523221 0.715536 -0.000002 -0.000004 -17.033699 -5.917718 14.280919 12.485873 -0.000003 -0.000001 -19.318800 27.054359 19.268809 4.018982 -3.126201 -0.601405 -2.283502 -126.302943 -39.912740 -85.514221 -0.000006 0.000002 -16.919397 -16.348433 13.209007 -1.306181 -0.000002 0.000003 -18.035898 146.495537 82.375053 -91.784055
23.947598 24.867205 43.669601 7.648577 -6.258653 3.960110 -0.128498 0.160398 6.566005 -6.728384 9.790336 -4.205993 -0.000001 0.000001 3.554810 9.285584 -6.378152 1.137085 -0.000001 0.000001 8.267995 -6.361618 3.776185 1.965268 -0.000002 0.000005 2.173902 -0.523919 1.315911 -0.049754 2.057504 0.117598 5.946302 -19.411444 0.913531 3.899876 4.957697 0.000001 0.000005 -12.693380 -9.633402 -71.117357 0.000002 0.000000 -8.465502 -131.657306 -176.485832 -175.892684 -0.000007 -0.000008 -14.594895 40.556495 -11.463477 -2.470081 -3.048504 -0.728806 6.604099 25.375833 -3.586606 -9.261992 -3.710294 -0.000001 0.000000 4.358480 -32.539936 81.653771 0.000003 0.000005 -10.450897 -51.858672 -31.309799 -12.051981 0.000002 0.000003 -12.539190 -34.190715 -9.278424 26.797107 2.442602 -0.601398 -2.767496 -17.666667 2.558915 0.787008 0.000000 -0.000004 -17.033709 -6.007360 14.366762 12.512504 0.000002 -0.000003 -19.318798 27.145163 19.267581 3.953938 -3.126200 -0.601404 -2.283501 -125.450959 -40.426630 -85.068913 -0.000001 -0.000003 -16.919395 -16.185381 13.257235 -1.372503 -0.000004 -0.000002 -18.035898 145.569622 82.433273 -91.019709
23.911896 24.882803 43.663002 7.785686 -6.397993 3.922889 -0.128497 0.160394 6.566005 -6.859993 9.956921 -4.154774 -0.000002 -0.000000 3.554807 9.369592 -6.376517 1.166054 0.000003 0.000005 8.267998 -6.387462 3.748466 1.962920 0.000002 0.000006 2.173892 -0.535479 1.314153 -0.020912 2.057507 0.117603 5.946293 -19.497376 0.894362 3.925701 4.957696 0.000002 -0.000002 -13.123559 -9.786074 -70.905054 0.000003 0.000001 -8.465499 -132.189705 -176.421027 -175.810258 -0.000006 -0.000001 -14.594887 40.521170 -11.477917 -2.388933 -3.048499 -0.728798 6.604095 25.406692 -3.560273 -9.311614 -3.710291 0.000004 0.000008 4.543710 -32.572349 81.404974 0.000010 0.000003 -10.450893 -51.756503 -31.804369 -12.290405 0.000006 -0.000003 -12.539195 -33.793850 -9.445639 27.016351 2.442604 -0.601403 -2.767493 -17.804184 2.607537 0.839980 -0.000001 -0.000004 -17.033699 -6.024854 14.445543 12.535027 0.000001 -0.000001 -19.318798 27.190213 19.285420 3.882166 -3.126197 -0.601405 -2.283498 -124.584659 -40.914821 -84.603832 -0.000006 0.000003 -16.919397 -16.031318 13.302518 -1.433611 -0.000005 0.000002 -18.035896 145.757057 82.478052 -91.367919
23.874397 24.899305 43.658501 7.929079 -6.537528 3.900663 -0.128501 0.160399 6.566008 -6.998000 10.130701 -4.105102 -0.000002 0.000004 3.554809 9.449143 -6.378492 1.184444 -0.000001 0.000002 8.268002 -6.408685 3.715031 1.950565 0.000001 0.000002 2.173897 -0.553755 1.312735 0.013086 2.057503 0.117603 5.946305 -19.585036 0.874856 3.955798 4.957700 -0.000001 0.000005 -13.552732 -9.928403 -70.698844 0.000005 0.000006 -8.465499 -132.723116 -176.351646 -175.723569 -0.000002 0.000003 -14.594893 40.487995 -11.489532 -2.321661 -3.048503 -0.728796 6.604105 25.424792 -3.539063 -9.366635 -3.710292 0.000001 -0.000002 4.734521 -32.592245 81.149184 0.000003 0.000006 -10.450893 -51.639130 -32.303667 -12.523872 0.000005 0.000001 -12.539194 -33.423336 -9.614313 27.249388 2.442601 -0.601394 -2.767497 -17.947693 2.667693 0.873997 -0.000001 -0.000001 -17.033701 -5.964153 14.518042 12.551404 -0.000001 -0.000005 -19.318800 27.188620 19.324731 3.794878 -3.126202 -0.601401 -2.283498 -123.706201 -41.376326 -84.122597 -0.000000 -0.000001 -16.919397 -15.901182 13.342363 -1.489527 -0.000003 -0.000000 -18.035896 145.114117 82.518459 -90.870824
23.834997 24.917105 43.656200 8.309067 -6.396193 3.886350 -0.128504 0.160404 6.566008 -7.389363 10.044200 -4.058111 -0.000001 -0.000002 3.554802 9.524782 -6.384284 1.192558 -0.000003 0.000000 8.268002 -6.426420 3.676645 1.931075 0.000002 0.000004 2.173897 -0.577587 1.312066 0.049718 2.057502 0.117604 5.946309 -19.673233 0.855328 3.990028 4.957700 0.000000 0.000004 -13.999834 -10.145754 -70.435103 0.000003 0.000006 -8.465499 -133.322984 -176.261446 -175.709485 0.000004 -0.000007 -14.594895 40.442165 -11.505197 -2.255021 -3.048505 -0.728797 6.604106 25.431342 -3.522739 -9.424275 -3.710292 0.000001 0.000003 4.926740 -32.602911 80.882458 0.000003 0.000000 -10.450889 -51.501440 -32.811587 -12.752148 0.000006 0.000003 -12.539192 -33.082366 -9.784845 27.494628 2.442598 -0.601391 -2.767493 -18.342096 2.477325 0.838046 -0.000001 0.000001 -17.033699 -5.821580 14.585596 12.559755 -0.000001 -0.000000 -19.318802 27.140050 19.387299 3.684116 -3.126198 -0.601397 -2.283498 -123.279765 -41.693896 -83.950600 -0.000004 -0.000001 -16.919399 -15.809383 13.375155 -1.539702 -0.000007 0.000002 -18.035898 144.594121 82.544455 -90.483921
